<?xml version="1.0" encoding="UTF-8" standalone="no"?>
<!-- Created with Inkscape (http://www.inkscape.org/) -->

<svg
   width="210.24518mm"
   height="211.19197mm"
   viewBox="0 0 210.24518 211.19197"
   version="1.1"
   id="svg1"
   xml:space="preserve"
   inkscape:version="1.4 (e7c3feb1, 2024-10-09)"
   sodipodi:docname="icon.svg"
   xmlns:inkscape="http://www.inkscape.org/namespaces/inkscape"
   xmlns:sodipodi="http://sodipodi.sourceforge.net/DTD/sodipodi-0.dtd"
   xmlns="http://www.w3.org/2000/svg"
   xmlns:svg="http://www.w3.org/2000/svg"><sodipodi:namedview
     id="namedview1"
     pagecolor="#ffffff"
     bordercolor="#000000"
     borderopacity="0.25"
     inkscape:showpageshadow="2"
     inkscape:pageopacity="0.0"
     inkscape:pagecheckerboard="0"
     inkscape:deskcolor="#d1d1d1"
     inkscape:document-units="mm"
     inkscape:zoom="0.66129752"
     inkscape:cx="288.07003"
     inkscape:cy="495.9946"
     inkscape:window-width="1680"
     inkscape:window-height="997"
     inkscape:window-x="0"
     inkscape:window-y="25"
     inkscape:window-maximized="1"
     inkscape:current-layer="layer1" /><defs
     id="defs1" /><g
     inkscape:label="Layer 1"
     inkscape:groupmode="layer"
     id="layer1"
     transform="translate(0.95312086,-42.413005)"><path
       style="fill:#5b92bc;fill-opacity:1"
       d="m 40.641374,253.25634 c -16.922,-2.06518 -29.323506,-10.30148 -36.2318039,-24.06289 l -1.333826,-2.657 -1.13225,-3.43958 c -1.19967496,-3.64441 -1.97362196,-7.22243 -2.54677696,-11.77396 l -0.349838,-2.77812 V 147.02917 85.513546 l 0.477448,-3.14693 C 2.9603191,59.719517 17.777142,45.560985 40.983335,42.749573 l 2.778125,-0.336568 60.45729,0.0064 60.45728,0.0064 3.27758,0.450884 c 14.4592,1.989097 24.79448,7.907062 32.46357,18.588591 l 1.68906,2.352517 1.57104,3.175 c 3.5024,7.078145 4.71966,12.403687 5.32187,23.283332 l 0.2929,5.291667 -0.10295,55.694784 -0.10295,55.69479 -0.43868,3.57187 c -0.61948,5.04406 -1.3997,8.93071 -2.46976,12.30313 l -0.92347,2.91041 -1.82856,3.70417 -1.82856,3.70417 -2.08885,2.77812 -2.08885,2.77813 -2.14878,2.0518 c -1.18183,1.12849 -3.19128,2.82763 -4.46545,3.77587 l -2.31666,1.72406 -3.61706,1.81773 -3.61706,1.81772 -2.46836,0.81694 c -3.002,0.99355 -6.12418,1.74117 -9.77534,2.34075 l -2.74718,0.45114 -61.38332,0.0508 -61.383333,0.0508 z m 4.397196,-26.44729 0.388865,-0.38887 0.160141,-1.52936 c 0.08808,-0.84115 0.400235,-5.04171 0.693685,-9.33457 0.293449,-4.29287 0.650214,-9.34706 0.792809,-11.23154 0.142596,-1.88448 0.259265,-4.17643 0.259265,-5.09323 v -1.6669 l 0.198438,0.003 c 0.10914,0.002 0.574149,0.98414 1.033353,2.18281 3.009059,7.85465 9.107762,23.07384 9.464321,23.61802 l 0.428586,0.6541 h 3.789352 3.789351 l 0.416717,-0.46302 c 0.229194,-0.25466 2.742268,-6.29708 5.584608,-13.4276 2.842341,-7.13052 5.175805,-12.84552 5.185477,-12.7 0.0097,0.14552 0.246997,3.59833 0.527389,7.67291 0.280392,4.07459 0.701843,10.3849 0.936557,14.02292 0.234714,3.63802 0.536309,6.88247 0.670212,7.2099 l 0.243459,0.59531 h 4.49428 4.49428 l 0.265167,-0.49547 0.265167,-0.49547 -0.912641,-13.4613 c -0.501952,-7.40372 -1.164044,-17.09271 -1.471316,-21.53109 l -0.558675,-8.06979 -0.378141,-0.59532 -0.378142,-0.59531 h -5.367289 -5.367289 l -0.432728,0.33073 -0.432728,0.33073 -1.198689,3.08598 c -0.65928,1.69729 -3.058146,7.76947 -5.330814,13.49375 -2.272667,5.72427 -4.248259,10.70463 -4.390203,11.06746 l -0.258081,0.65969 -5.472176,-14.04976 c -3.009698,-7.72737 -5.635584,-14.24525 -5.835303,-14.48417 l -0.363126,-0.43441 H 45.35757 39.742433 l -0.41712,0.46302 -0.41712,0.46302 -0.955669,13.09688 c -0.525618,7.20328 -1.255192,17.02593 -1.621274,21.82812 l -0.665605,8.73125 0.57149,0.46302 0.57149,0.46302 h 3.92054 3.920539 z m 61.06601,-0.31364 0.36313,-0.43792 -0.02,-21.64913 -0.02,-21.64913 -0.48401,-0.53482 -0.48401,-0.53483 h -4.30541 -4.305417 l -0.552903,0.7029 -0.552902,0.7029 0.07068,21.48153 0.07068,21.48152 0.363126,0.43745 0.363126,0.43745 h 4.56541 4.56542 z m 34.21673,-0.44883 c 1.3025,-0.40106 3.32657,-1.22144 4.49791,-1.82306 l 2.12973,-1.09385 1.98719,-2.00078 1.9872,-2.00077 0.96649,-1.85208 c 1.31572,-2.52132 2.01732,-4.72042 2.4753,-7.75865 l 0.3859,-2.5601 0.002,-2.56054 c 8.6e-4,-1.4083 -0.12456,-3.4919 -0.2787,-4.63021 l -0.28027,-2.06967 -0.87082,-2.56773 c -2.23626,-6.59397 -6.75435,-10.81943 -13.58402,-12.70424 l -2.05025,-0.56582 -10.53125,-0.10597 -10.53123,-0.10597 -0.6474,0.4242 -0.6474,0.42419 v 21.80313 21.80312 l 0.43388,0.43389 0.43389,0.43388 10.87704,-0.0969 10.87705,-0.0969 z M 125.12082,204.54843 V 190.6302 l 5.22552,0.11911 5.22552,0.11911 1.51688,0.55416 c 2.67619,0.9777 4.66772,2.65246 6.13846,5.1621 l 0.67851,1.15779 0.52943,2.07005 0.52943,2.07004 -0.005,2.66966 -0.005,2.66965 -0.37886,1.78786 -0.37887,1.78786 -0.97933,1.86368 -0.97933,1.86367 -1.08461,0.93604 c -1.49565,1.29078 -3.34019,2.18472 -5.41555,2.62462 l -1.75447,0.37187 -4.43177,0.005 -4.43177,0.005 z m 45.88631,21.96913 0.41577,-0.41578 v -21.79422 -21.79422 l -0.58804,-0.41188 -0.58803,-0.41188 h -4.04217 -4.04217 l -0.52917,0.52917 -0.52917,0.52916 v 21.50467 21.50467 l 0.41188,0.58804 0.41188,0.58804 h 4.33172 4.33173 z m -1.5686,-55.23439 c 0.87312,-0.26043 2.54,-0.94099 3.70416,-1.51237 l 2.11667,-1.03888 1.41803,-1.16512 c 2.85514,-2.34594 4.95781,-5.56082 6.16444,-9.42513 l 0.61961,-1.98438 V 119.24792 82.338546 L 182.9891,80.627128 C 181.15179,73.970157 176.14257,69.015136 169.43853,67.223182 L 167.58644,66.72813 H 104.21875 40.851044 l -2.060278,0.483239 -2.060278,0.483239 -2.173055,1.077062 -2.173055,1.077063 -2.391155,2.408448 -2.391154,2.408448 -1.106085,2.248959 -1.106085,2.248958 -0.471511,1.852083 -0.47151,1.852083 v 36.512498 36.5125 l 0.464372,1.71979 c 0.255405,0.94588 0.934102,2.67229 1.508216,3.83646 l 1.043843,2.11666 1.26991,1.51504 c 2.921523,3.48545 7.478766,5.97965 12.117825,6.63215 0.436562,0.0614 29.190154,0.0964 63.896876,0.0778 l 63.10311,-0.0339 z m -129.527492,-8.98373 -1.733755,-0.59107 -1.116197,-0.88404 c -1.278357,-1.01248 -2.510069,-2.69833 -3.166066,-4.3334 l -0.452309,-1.12739 -0.07675,-34.925 -0.07675,-34.924994 0.294342,-1.719186 0.294341,-1.719185 0.697219,-1.28102 0.697219,-1.28102 1.401174,-1.280595 1.401174,-1.280594 1.52047,-0.5842 1.52047,-0.5842 5.093229,-0.130168 5.093229,-0.130168 v 25.51939 25.51939 l 0.404257,1.18643 c 0.528891,1.5522 1.718239,2.96668 3.253242,3.86903 l 1.237292,0.72734 4.564063,0.088 4.564062,0.088 v 15.19168 15.19169 l -11.840104,-0.007 -11.840103,-0.007 z M 73.527084,147.70978 V 132.5154 l 5.511832,-0.0853 5.511833,-0.0853 1.292051,-0.79942 1.292052,-0.79942 0.844668,-1.10743 0.844668,-1.10744 0.291551,-1.35945 0.29155,-1.35945 -0.0078,-25.04411 -0.0078,-25.044107 11.580691,-0.02739 c 6.36939,-0.01507 12.92016,0.02787 14.55727,0.09542 l 2.97656,0.12281 v 25.406177 25.40618 l 0.31115,1.03854 0.31116,1.03854 1.04398,1.18603 1.04398,1.18603 1.09225,0.58425 1.09226,0.58425 5.4901,0.0853 5.49011,0.0853 v 15.19438 15.19439 H 103.95417 73.527084 Z m 69.056236,-0.009 v -15.22345 h 4.1862 4.1862 l 1.18643,-0.40425 c 0.65254,-0.22234 1.6155,-0.75794 2.13993,-1.19021 l 0.95349,-0.78595 0.68534,-1.37529 0.68533,-1.37528 V 101.46889 75.591671 l 4.03489,0.002 4.0349,0.002 1.68325,0.27313 1.68325,0.273131 1.31647,0.667101 c 0.72405,0.366906 1.81489,1.165832 2.4241,1.775391 l 1.10764,1.108291 0.60292,1.283515 c 0.33161,0.705934 0.71786,1.905223 0.85833,2.665087 l 0.25539,1.381572 -0.0709,35.170321 -0.0709,35.17033 -0.60953,1.50856 -0.60954,1.50855 -1.19365,1.32763 -1.19365,1.32762 -1.76255,0.86799 -1.76255,0.86798 -12.37541,0.0761 -12.37541,0.0761 z M 62.679168,101.12396 V 75.591671 h 7.408333 7.408332 v 25.532289 25.53229 h -7.408332 -7.408333 z m 67.533562,0.0662 0.0675,-25.466147 7.47448,-0.07027 7.47447,-0.07027 v 25.536367 25.53641 h -7.54194 -7.54195 z"
       id="path6" /></g></svg>
